<mxfile host="app.diagrams.net" agent="Mozilla/5.0 (X11; Ubuntu; Linux x86_64; rv:136.0) Gecko/20100101 Firefox/136.0" version="26.2.4">
  <diagram name="PÃ¡gina-1" id="N2W4S1xBGwCeulyaymFw">
    <mxGraphModel dx="1871" dy="1749" grid="1" gridSize="10" guides="1" tooltips="1" connect="1" arrows="1" fold="1" page="1" pageScale="1" pageWidth="827" pageHeight="1169" math="0" shadow="0">
      <root>
        <mxCell id="0" />
        <mxCell id="1" parent="0" />
        <mxCell id="MqQqpcN7Zi8VqkHb9JML-1" value="Vuelos" style="whiteSpace=wrap;html=1;align=center;" parent="1" vertex="1">
          <mxGeometry x="170" y="160" width="100" height="40" as="geometry" />
        </mxCell>
        <mxCell id="MqQqpcN7Zi8VqkHb9JML-2" value="Pasajeros" style="whiteSpace=wrap;html=1;align=center;" parent="1" vertex="1">
          <mxGeometry x="610" y="110" width="100" height="40" as="geometry" />
        </mxCell>
        <mxCell id="MqQqpcN7Zi8VqkHb9JML-3" value="No. Vuelo" style="ellipse;whiteSpace=wrap;html=1;align=center;fontStyle=4;" parent="1" vertex="1">
          <mxGeometry x="320" y="135" width="100" height="40" as="geometry" />
        </mxCell>
        <mxCell id="MqQqpcN7Zi8VqkHb9JML-6" value="Hora salida" style="ellipse;whiteSpace=wrap;html=1;align=center;" parent="1" vertex="1">
          <mxGeometry x="-250" y="-140" width="100" height="40" as="geometry" />
        </mxCell>
        <mxCell id="MqQqpcN7Zi8VqkHb9JML-7" value="Estado" style="ellipse;whiteSpace=wrap;html=1;align=center;" parent="1" vertex="1">
          <mxGeometry x="320" y="200" width="100" height="40" as="geometry" />
        </mxCell>
        <mxCell id="MqQqpcN7Zi8VqkHb9JML-8" value="Pasaporte" style="ellipse;whiteSpace=wrap;html=1;align=center;fontStyle=4;" parent="1" vertex="1">
          <mxGeometry x="700" y="55" width="100" height="40" as="geometry" />
        </mxCell>
        <mxCell id="MqQqpcN7Zi8VqkHb9JML-9" value="Nombre" style="ellipse;whiteSpace=wrap;html=1;align=center;" parent="1" vertex="1">
          <mxGeometry x="510" y="55" width="100" height="40" as="geometry" />
        </mxCell>
        <mxCell id="MqQqpcN7Zi8VqkHb9JML-10" value="Nacionalidad" style="ellipse;whiteSpace=wrap;html=1;align=center;" parent="1" vertex="1">
          <mxGeometry x="720" y="110" width="100" height="40" as="geometry" />
        </mxCell>
        <mxCell id="MqQqpcN7Zi8VqkHb9JML-11" value="Telefono" style="ellipse;whiteSpace=wrap;html=1;align=center;" parent="1" vertex="1">
          <mxGeometry x="690" y="170" width="100" height="40" as="geometry" />
        </mxCell>
        <mxCell id="MqQqpcN7Zi8VqkHb9JML-12" value="Avion" style="whiteSpace=wrap;html=1;align=center;" parent="1" vertex="1">
          <mxGeometry x="130" y="390" width="100" height="40" as="geometry" />
        </mxCell>
        <mxCell id="MqQqpcN7Zi8VqkHb9JML-13" value="Matricula" style="ellipse;whiteSpace=wrap;html=1;align=center;fontStyle=4;" parent="1" vertex="1">
          <mxGeometry x="50" y="330" width="100" height="40" as="geometry" />
        </mxCell>
        <mxCell id="MqQqpcN7Zi8VqkHb9JML-14" value="Modelo" style="ellipse;whiteSpace=wrap;html=1;align=center;" parent="1" vertex="1">
          <mxGeometry x="190" y="450" width="100" height="40" as="geometry" />
        </mxCell>
        <mxCell id="MqQqpcN7Zi8VqkHb9JML-15" value="Capacidad" style="ellipse;whiteSpace=wrap;html=1;align=center;" parent="1" vertex="1">
          <mxGeometry x="250" y="390" width="100" height="40" as="geometry" />
        </mxCell>
        <mxCell id="MqQqpcN7Zi8VqkHb9JML-16" value="Aerolinea" style="ellipse;whiteSpace=wrap;html=1;align=center;" parent="1" vertex="1">
          <mxGeometry x="70" y="460" width="100" height="40" as="geometry" />
        </mxCell>
        <mxCell id="MqQqpcN7Zi8VqkHb9JML-17" value="Realiza" style="shape=rhombus;perimeter=rhombusPerimeter;whiteSpace=wrap;html=1;align=center;" parent="1" vertex="1">
          <mxGeometry x="150" y="310" width="90" height="40" as="geometry" />
        </mxCell>
        <mxCell id="MqQqpcN7Zi8VqkHb9JML-20" value="Puerta embarque" style="whiteSpace=wrap;html=1;align=center;" parent="1" vertex="1">
          <mxGeometry x="520" y="360" width="100" height="40" as="geometry" />
        </mxCell>
        <mxCell id="MqQqpcN7Zi8VqkHb9JML-21" value="No. puerta" style="ellipse;whiteSpace=wrap;html=1;align=center;fontStyle=4;" parent="1" vertex="1">
          <mxGeometry x="610" y="310" width="100" height="40" as="geometry" />
        </mxCell>
        <mxCell id="MqQqpcN7Zi8VqkHb9JML-22" value="Ubicacion" style="ellipse;whiteSpace=wrap;html=1;align=center;" parent="1" vertex="1">
          <mxGeometry x="650" y="370" width="100" height="40" as="geometry" />
        </mxCell>
        <mxCell id="MqQqpcN7Zi8VqkHb9JML-23" value="Tiene" style="shape=rhombus;perimeter=rhombusPerimeter;whiteSpace=wrap;html=1;align=center;" parent="1" vertex="1">
          <mxGeometry x="414" y="310" width="90" height="30" as="geometry" />
        </mxCell>
        <mxCell id="MqQqpcN7Zi8VqkHb9JML-24" value="" style="endArrow=none;html=1;rounded=0;entryX=0;entryY=0.5;entryDx=0;entryDy=0;exitX=0.5;exitY=1;exitDx=0;exitDy=0;" parent="1" source="MqQqpcN7Zi8VqkHb9JML-23" target="MqQqpcN7Zi8VqkHb9JML-20" edge="1">
          <mxGeometry relative="1" as="geometry">
            <mxPoint x="330" y="310" as="sourcePoint" />
            <mxPoint x="490" y="310" as="targetPoint" />
          </mxGeometry>
        </mxCell>
        <mxCell id="MqQqpcN7Zi8VqkHb9JML-25" value="1" style="resizable=0;html=1;whiteSpace=wrap;align=right;verticalAlign=bottom;" parent="MqQqpcN7Zi8VqkHb9JML-24" connectable="0" vertex="1">
          <mxGeometry x="1" relative="1" as="geometry" />
        </mxCell>
        <mxCell id="MqQqpcN7Zi8VqkHb9JML-26" value="" style="endArrow=none;html=1;rounded=0;entryX=0.75;entryY=1;entryDx=0;entryDy=0;exitX=0;exitY=0.5;exitDx=0;exitDy=0;" parent="1" source="MqQqpcN7Zi8VqkHb9JML-23" target="MqQqpcN7Zi8VqkHb9JML-1" edge="1">
          <mxGeometry relative="1" as="geometry">
            <mxPoint x="330" y="310" as="sourcePoint" />
            <mxPoint x="490" y="310" as="targetPoint" />
          </mxGeometry>
        </mxCell>
        <mxCell id="MqQqpcN7Zi8VqkHb9JML-27" value="N" style="resizable=0;html=1;whiteSpace=wrap;align=right;verticalAlign=bottom;" parent="MqQqpcN7Zi8VqkHb9JML-26" connectable="0" vertex="1">
          <mxGeometry x="1" relative="1" as="geometry" />
        </mxCell>
        <mxCell id="MqQqpcN7Zi8VqkHb9JML-28" value="Tripulacion" style="whiteSpace=wrap;html=1;align=center;" parent="1" vertex="1">
          <mxGeometry x="250" y="-80" width="100" height="40" as="geometry" />
        </mxCell>
        <mxCell id="MqQqpcN7Zi8VqkHb9JML-29" value="Nombre" style="ellipse;whiteSpace=wrap;html=1;align=center;" parent="1" vertex="1">
          <mxGeometry x="370" y="-60" width="100" height="40" as="geometry" />
        </mxCell>
        <mxCell id="MqQqpcN7Zi8VqkHb9JML-30" value="ID" style="ellipse;whiteSpace=wrap;html=1;align=center;fontStyle=4;" parent="1" vertex="1">
          <mxGeometry x="160" y="-90" width="60" height="30" as="geometry" />
        </mxCell>
        <mxCell id="MqQqpcN7Zi8VqkHb9JML-31" value="Puesto" style="ellipse;whiteSpace=wrap;html=1;align=center;" parent="1" vertex="1">
          <mxGeometry x="280" y="-140" width="80" height="30" as="geometry" />
        </mxCell>
        <mxCell id="MqQqpcN7Zi8VqkHb9JML-32" value="Vuela" style="shape=rhombus;perimeter=rhombusPerimeter;whiteSpace=wrap;html=1;align=center;" parent="1" vertex="1">
          <mxGeometry x="195" y="10" width="90" height="30" as="geometry" />
        </mxCell>
        <mxCell id="MqQqpcN7Zi8VqkHb9JML-33" value="" style="endArrow=none;html=1;rounded=0;entryX=0.39;entryY=0.088;entryDx=0;entryDy=0;entryPerimeter=0;exitX=0.5;exitY=1;exitDx=0;exitDy=0;" parent="1" source="MqQqpcN7Zi8VqkHb9JML-32" target="MqQqpcN7Zi8VqkHb9JML-1" edge="1">
          <mxGeometry relative="1" as="geometry">
            <mxPoint x="330" y="160" as="sourcePoint" />
            <mxPoint x="490" y="160" as="targetPoint" />
          </mxGeometry>
        </mxCell>
        <mxCell id="MqQqpcN7Zi8VqkHb9JML-34" value="N" style="resizable=0;html=1;whiteSpace=wrap;align=right;verticalAlign=bottom;" parent="MqQqpcN7Zi8VqkHb9JML-33" connectable="0" vertex="1">
          <mxGeometry x="1" relative="1" as="geometry" />
        </mxCell>
        <mxCell id="MqQqpcN7Zi8VqkHb9JML-35" value="" style="endArrow=none;html=1;rounded=0;entryX=0.375;entryY=1.025;entryDx=0;entryDy=0;entryPerimeter=0;exitX=0.5;exitY=0;exitDx=0;exitDy=0;" parent="1" source="MqQqpcN7Zi8VqkHb9JML-32" target="MqQqpcN7Zi8VqkHb9JML-28" edge="1">
          <mxGeometry relative="1" as="geometry">
            <mxPoint x="330" y="160" as="sourcePoint" />
            <mxPoint x="490" y="160" as="targetPoint" />
          </mxGeometry>
        </mxCell>
        <mxCell id="MqQqpcN7Zi8VqkHb9JML-36" value="N" style="resizable=0;html=1;whiteSpace=wrap;align=right;verticalAlign=bottom;" parent="MqQqpcN7Zi8VqkHb9JML-35" connectable="0" vertex="1">
          <mxGeometry x="1" relative="1" as="geometry" />
        </mxCell>
        <mxCell id="MqQqpcN7Zi8VqkHb9JML-37" value="" style="endArrow=none;html=1;rounded=0;entryX=0.5;entryY=1;entryDx=0;entryDy=0;" parent="1" source="MqQqpcN7Zi8VqkHb9JML-28" target="MqQqpcN7Zi8VqkHb9JML-31" edge="1">
          <mxGeometry relative="1" as="geometry">
            <mxPoint x="330" y="70" as="sourcePoint" />
            <mxPoint x="490" y="70" as="targetPoint" />
          </mxGeometry>
        </mxCell>
        <mxCell id="MqQqpcN7Zi8VqkHb9JML-38" value="" style="endArrow=none;html=1;rounded=0;entryX=0;entryY=0.5;entryDx=0;entryDy=0;exitX=1;exitY=0.5;exitDx=0;exitDy=0;" parent="1" source="MqQqpcN7Zi8VqkHb9JML-28" target="MqQqpcN7Zi8VqkHb9JML-29" edge="1">
          <mxGeometry relative="1" as="geometry">
            <mxPoint x="330" y="70" as="sourcePoint" />
            <mxPoint x="490" y="70" as="targetPoint" />
          </mxGeometry>
        </mxCell>
        <mxCell id="MqQqpcN7Zi8VqkHb9JML-39" value="" style="endArrow=none;html=1;rounded=0;exitX=0.692;exitY=1.017;exitDx=0;exitDy=0;exitPerimeter=0;entryX=0;entryY=0.75;entryDx=0;entryDy=0;" parent="1" source="MqQqpcN7Zi8VqkHb9JML-30" target="MqQqpcN7Zi8VqkHb9JML-28" edge="1">
          <mxGeometry relative="1" as="geometry">
            <mxPoint x="330" y="70" as="sourcePoint" />
            <mxPoint x="490" y="70" as="targetPoint" />
          </mxGeometry>
        </mxCell>
        <mxCell id="MqQqpcN7Zi8VqkHb9JML-40" value="" style="endArrow=none;html=1;rounded=0;entryX=0.41;entryY=1.063;entryDx=0;entryDy=0;entryPerimeter=0;exitX=0.5;exitY=0;exitDx=0;exitDy=0;" parent="1" source="MqQqpcN7Zi8VqkHb9JML-17" target="MqQqpcN7Zi8VqkHb9JML-1" edge="1">
          <mxGeometry relative="1" as="geometry">
            <mxPoint x="330" y="330" as="sourcePoint" />
            <mxPoint x="490" y="330" as="targetPoint" />
          </mxGeometry>
        </mxCell>
        <mxCell id="MqQqpcN7Zi8VqkHb9JML-41" value="N" style="resizable=0;html=1;whiteSpace=wrap;align=right;verticalAlign=bottom;" parent="MqQqpcN7Zi8VqkHb9JML-40" connectable="0" vertex="1">
          <mxGeometry x="1" relative="1" as="geometry" />
        </mxCell>
        <mxCell id="MqQqpcN7Zi8VqkHb9JML-42" value="" style="endArrow=none;html=1;rounded=0;entryX=0.5;entryY=0;entryDx=0;entryDy=0;exitX=0.5;exitY=1;exitDx=0;exitDy=0;" parent="1" source="MqQqpcN7Zi8VqkHb9JML-17" target="MqQqpcN7Zi8VqkHb9JML-12" edge="1">
          <mxGeometry relative="1" as="geometry">
            <mxPoint x="330" y="330" as="sourcePoint" />
            <mxPoint x="490" y="330" as="targetPoint" />
          </mxGeometry>
        </mxCell>
        <mxCell id="MqQqpcN7Zi8VqkHb9JML-43" value="1" style="resizable=0;html=1;whiteSpace=wrap;align=right;verticalAlign=bottom;" parent="MqQqpcN7Zi8VqkHb9JML-42" connectable="0" vertex="1">
          <mxGeometry x="1" relative="1" as="geometry" />
        </mxCell>
        <mxCell id="MqQqpcN7Zi8VqkHb9JML-44" value="Fecha" style="ellipse;whiteSpace=wrap;html=1;align=center;" parent="1" vertex="1">
          <mxGeometry x="75" y="130" width="70" height="30" as="geometry" />
        </mxCell>
        <mxCell id="MqQqpcN7Zi8VqkHb9JML-45" value="Hora llegada" style="ellipse;whiteSpace=wrap;html=1;align=center;" parent="1" vertex="1">
          <mxGeometry x="-80" y="290" width="100" height="40" as="geometry" />
        </mxCell>
        <mxCell id="MqQqpcN7Zi8VqkHb9JML-46" value="Aeropuerto" style="whiteSpace=wrap;html=1;align=center;" parent="1" vertex="1">
          <mxGeometry x="-240" y="50" width="100" height="40" as="geometry" />
        </mxCell>
        <mxCell id="MqQqpcN7Zi8VqkHb9JML-47" value="ID" style="ellipse;whiteSpace=wrap;html=1;align=center;fontStyle=4;" parent="1" vertex="1">
          <mxGeometry x="-330" y="-10" width="70" height="30" as="geometry" />
        </mxCell>
        <mxCell id="MqQqpcN7Zi8VqkHb9JML-48" value="Nombre" style="ellipse;whiteSpace=wrap;html=1;align=center;" parent="1" vertex="1">
          <mxGeometry x="-370" y="40" width="100" height="40" as="geometry" />
        </mxCell>
        <mxCell id="MqQqpcN7Zi8VqkHb9JML-49" value="Ciudad" style="ellipse;whiteSpace=wrap;html=1;align=center;" parent="1" vertex="1">
          <mxGeometry x="-360" y="95" width="100" height="40" as="geometry" />
        </mxCell>
        <mxCell id="MqQqpcN7Zi8VqkHb9JML-50" value="Estado" style="ellipse;whiteSpace=wrap;html=1;align=center;" parent="1" vertex="1">
          <mxGeometry x="550" y="430" width="100" height="40" as="geometry" />
        </mxCell>
        <mxCell id="MqQqpcN7Zi8VqkHb9JML-52" value="Boleto" style="whiteSpace=wrap;html=1;align=center;" parent="1" vertex="1">
          <mxGeometry x="610" y="-90" width="100" height="40" as="geometry" />
        </mxCell>
        <mxCell id="MqQqpcN7Zi8VqkHb9JML-53" value="Asiento" style="ellipse;whiteSpace=wrap;html=1;align=center;" parent="1" vertex="1">
          <mxGeometry x="540" y="-150" width="100" height="40" as="geometry" />
        </mxCell>
        <mxCell id="MqQqpcN7Zi8VqkHb9JML-54" value="Clase" style="ellipse;whiteSpace=wrap;html=1;align=center;" parent="1" vertex="1">
          <mxGeometry x="660" y="-30" width="100" height="40" as="geometry" />
        </mxCell>
        <mxCell id="MqQqpcN7Zi8VqkHb9JML-55" value="ID" style="ellipse;whiteSpace=wrap;html=1;align=center;fontStyle=4;" parent="1" vertex="1">
          <mxGeometry x="660" y="-150" width="100" height="40" as="geometry" />
        </mxCell>
        <mxCell id="MqQqpcN7Zi8VqkHb9JML-56" value="Aerolinea" style="whiteSpace=wrap;html=1;align=center;" parent="1" vertex="1">
          <mxGeometry x="-210" y="400" width="100" height="40" as="geometry" />
        </mxCell>
        <mxCell id="MqQqpcN7Zi8VqkHb9JML-57" value="ID" style="ellipse;whiteSpace=wrap;html=1;align=center;fontStyle=4;" parent="1" vertex="1">
          <mxGeometry x="-190" y="330" width="100" height="40" as="geometry" />
        </mxCell>
        <mxCell id="MqQqpcN7Zi8VqkHb9JML-59" value="Nombre" style="ellipse;whiteSpace=wrap;html=1;align=center;" parent="1" vertex="1">
          <mxGeometry x="-320" y="360" width="100" height="40" as="geometry" />
        </mxCell>
        <mxCell id="MqQqpcN7Zi8VqkHb9JML-60" value="Pertenece" style="shape=rhombus;perimeter=rhombusPerimeter;whiteSpace=wrap;html=1;align=center;" parent="1" vertex="1">
          <mxGeometry x="-50" y="410" width="90" height="40" as="geometry" />
        </mxCell>
        <mxCell id="MqQqpcN7Zi8VqkHb9JML-61" value="" style="endArrow=none;html=1;rounded=0;entryX=1;entryY=0.5;entryDx=0;entryDy=0;exitX=0;exitY=0.5;exitDx=0;exitDy=0;" parent="1" source="MqQqpcN7Zi8VqkHb9JML-60" target="MqQqpcN7Zi8VqkHb9JML-56" edge="1">
          <mxGeometry relative="1" as="geometry">
            <mxPoint x="40" y="340" as="sourcePoint" />
            <mxPoint x="200" y="340" as="targetPoint" />
          </mxGeometry>
        </mxCell>
        <mxCell id="MqQqpcN7Zi8VqkHb9JML-62" value="1" style="resizable=0;html=1;whiteSpace=wrap;align=right;verticalAlign=bottom;" parent="MqQqpcN7Zi8VqkHb9JML-61" connectable="0" vertex="1">
          <mxGeometry x="1" relative="1" as="geometry" />
        </mxCell>
        <mxCell id="MqQqpcN7Zi8VqkHb9JML-63" value="" style="endArrow=none;html=1;rounded=0;entryX=0;entryY=0.5;entryDx=0;entryDy=0;exitX=1;exitY=0.5;exitDx=0;exitDy=0;" parent="1" source="MqQqpcN7Zi8VqkHb9JML-60" target="MqQqpcN7Zi8VqkHb9JML-12" edge="1">
          <mxGeometry relative="1" as="geometry">
            <mxPoint x="40" y="340" as="sourcePoint" />
            <mxPoint x="200" y="340" as="targetPoint" />
          </mxGeometry>
        </mxCell>
        <mxCell id="MqQqpcN7Zi8VqkHb9JML-64" value="N" style="resizable=0;html=1;whiteSpace=wrap;align=right;verticalAlign=bottom;" parent="MqQqpcN7Zi8VqkHb9JML-63" connectable="0" vertex="1">
          <mxGeometry x="1" relative="1" as="geometry" />
        </mxCell>
        <mxCell id="MqQqpcN7Zi8VqkHb9JML-65" value="Destino" style="ellipse;whiteSpace=wrap;html=1;align=center;" parent="1" vertex="1">
          <mxGeometry x="-205" y="205" width="90" height="25" as="geometry" />
        </mxCell>
        <mxCell id="MqQqpcN7Zi8VqkHb9JML-66" value="Origen" style="ellipse;whiteSpace=wrap;html=1;align=center;" parent="1" vertex="1">
          <mxGeometry x="-30" y="-132.5" width="80" height="32.5" as="geometry" />
        </mxCell>
        <mxCell id="MqQqpcN7Zi8VqkHb9JML-67" value="Salida" style="whiteSpace=wrap;html=1;align=center;" parent="1" vertex="1">
          <mxGeometry x="-140" y="-145" width="100" height="40" as="geometry" />
        </mxCell>
        <mxCell id="MqQqpcN7Zi8VqkHb9JML-68" value="Llegada" style="whiteSpace=wrap;html=1;align=center;" parent="1" vertex="1">
          <mxGeometry x="-100" y="240" width="100" height="40" as="geometry" />
        </mxCell>
        <mxCell id="MqQqpcN7Zi8VqkHb9JML-70" value="Sale" style="shape=rhombus;perimeter=rhombusPerimeter;whiteSpace=wrap;html=1;align=center;" parent="1" vertex="1">
          <mxGeometry x="40" y="20" width="90" height="40" as="geometry" />
        </mxCell>
        <mxCell id="MqQqpcN7Zi8VqkHb9JML-76" value="Llega" style="shape=rhombus;perimeter=rhombusPerimeter;whiteSpace=wrap;html=1;align=center;" parent="1" vertex="1">
          <mxGeometry x="-60" y="150" width="90" height="30" as="geometry" />
        </mxCell>
        <mxCell id="MqQqpcN7Zi8VqkHb9JML-79" value="" style="endArrow=none;html=1;rounded=0;entryX=0.5;entryY=0;entryDx=0;entryDy=0;exitX=0.5;exitY=1;exitDx=0;exitDy=0;" parent="1" source="MqQqpcN7Zi8VqkHb9JML-76" target="MqQqpcN7Zi8VqkHb9JML-68" edge="1">
          <mxGeometry relative="1" as="geometry">
            <mxPoint x="40" y="70" as="sourcePoint" />
            <mxPoint x="200" y="70" as="targetPoint" />
          </mxGeometry>
        </mxCell>
        <mxCell id="MqQqpcN7Zi8VqkHb9JML-80" value="1" style="resizable=0;html=1;whiteSpace=wrap;align=right;verticalAlign=bottom;" parent="MqQqpcN7Zi8VqkHb9JML-79" connectable="0" vertex="1">
          <mxGeometry x="1" relative="1" as="geometry" />
        </mxCell>
        <mxCell id="MqQqpcN7Zi8VqkHb9JML-81" value="" style="endArrow=none;html=1;rounded=0;entryX=0;entryY=0.5;entryDx=0;entryDy=0;exitX=1;exitY=0.5;exitDx=0;exitDy=0;" parent="1" source="MqQqpcN7Zi8VqkHb9JML-76" target="MqQqpcN7Zi8VqkHb9JML-1" edge="1">
          <mxGeometry relative="1" as="geometry">
            <mxPoint x="40" y="70" as="sourcePoint" />
            <mxPoint x="200" y="70" as="targetPoint" />
          </mxGeometry>
        </mxCell>
        <mxCell id="MqQqpcN7Zi8VqkHb9JML-82" value="N" style="resizable=0;html=1;whiteSpace=wrap;align=right;verticalAlign=bottom;" parent="MqQqpcN7Zi8VqkHb9JML-81" connectable="0" vertex="1">
          <mxGeometry x="1" relative="1" as="geometry" />
        </mxCell>
        <mxCell id="MqQqpcN7Zi8VqkHb9JML-83" value="" style="endArrow=none;html=1;rounded=0;entryX=0.5;entryY=1;entryDx=0;entryDy=0;exitX=0.078;exitY=0.35;exitDx=0;exitDy=0;exitPerimeter=0;" parent="1" source="MqQqpcN7Zi8VqkHb9JML-70" target="MqQqpcN7Zi8VqkHb9JML-67" edge="1">
          <mxGeometry relative="1" as="geometry">
            <mxPoint x="40" y="70" as="sourcePoint" />
            <mxPoint x="200" y="70" as="targetPoint" />
          </mxGeometry>
        </mxCell>
        <mxCell id="MqQqpcN7Zi8VqkHb9JML-84" value="1" style="resizable=0;html=1;whiteSpace=wrap;align=right;verticalAlign=bottom;" parent="MqQqpcN7Zi8VqkHb9JML-83" connectable="0" vertex="1">
          <mxGeometry x="1" relative="1" as="geometry" />
        </mxCell>
        <mxCell id="MqQqpcN7Zi8VqkHb9JML-87" value="" style="endArrow=none;html=1;rounded=0;entryX=0.25;entryY=0;entryDx=0;entryDy=0;exitX=0.5;exitY=1;exitDx=0;exitDy=0;" parent="1" source="MqQqpcN7Zi8VqkHb9JML-70" target="MqQqpcN7Zi8VqkHb9JML-1" edge="1">
          <mxGeometry relative="1" as="geometry">
            <mxPoint x="40" y="70" as="sourcePoint" />
            <mxPoint x="200" y="70" as="targetPoint" />
          </mxGeometry>
        </mxCell>
        <mxCell id="MqQqpcN7Zi8VqkHb9JML-88" value="N" style="resizable=0;html=1;whiteSpace=wrap;align=right;verticalAlign=bottom;" parent="MqQqpcN7Zi8VqkHb9JML-87" connectable="0" vertex="1">
          <mxGeometry x="1" relative="1" as="geometry" />
        </mxCell>
        <mxCell id="MqQqpcN7Zi8VqkHb9JML-89" value="" style="endArrow=none;html=1;rounded=0;" parent="1" source="MqQqpcN7Zi8VqkHb9JML-46" target="MqQqpcN7Zi8VqkHb9JML-47" edge="1">
          <mxGeometry relative="1" as="geometry">
            <mxPoint x="40" y="70" as="sourcePoint" />
            <mxPoint x="200" y="70" as="targetPoint" />
          </mxGeometry>
        </mxCell>
        <mxCell id="MqQqpcN7Zi8VqkHb9JML-90" value="" style="endArrow=none;html=1;rounded=0;entryX=1;entryY=0.5;entryDx=0;entryDy=0;" parent="1" source="MqQqpcN7Zi8VqkHb9JML-46" target="MqQqpcN7Zi8VqkHb9JML-48" edge="1">
          <mxGeometry relative="1" as="geometry">
            <mxPoint x="40" y="70" as="sourcePoint" />
            <mxPoint x="200" y="70" as="targetPoint" />
          </mxGeometry>
        </mxCell>
        <mxCell id="MqQqpcN7Zi8VqkHb9JML-91" value="" style="endArrow=none;html=1;rounded=0;entryX=1;entryY=0.5;entryDx=0;entryDy=0;exitX=0.5;exitY=1;exitDx=0;exitDy=0;" parent="1" source="MqQqpcN7Zi8VqkHb9JML-46" target="MqQqpcN7Zi8VqkHb9JML-49" edge="1">
          <mxGeometry relative="1" as="geometry">
            <mxPoint x="40" y="70" as="sourcePoint" />
            <mxPoint x="200" y="70" as="targetPoint" />
          </mxGeometry>
        </mxCell>
        <mxCell id="MqQqpcN7Zi8VqkHb9JML-92" value="" style="endArrow=none;html=1;rounded=0;entryX=1;entryY=1;entryDx=0;entryDy=0;" parent="1" source="MqQqpcN7Zi8VqkHb9JML-67" target="MqQqpcN7Zi8VqkHb9JML-6" edge="1">
          <mxGeometry relative="1" as="geometry">
            <mxPoint x="40" y="70" as="sourcePoint" />
            <mxPoint x="200" y="70" as="targetPoint" />
          </mxGeometry>
        </mxCell>
        <mxCell id="MqQqpcN7Zi8VqkHb9JML-93" value="" style="endArrow=none;html=1;rounded=0;entryX=1;entryY=0.5;entryDx=0;entryDy=0;" parent="1" source="MqQqpcN7Zi8VqkHb9JML-66" target="MqQqpcN7Zi8VqkHb9JML-67" edge="1">
          <mxGeometry relative="1" as="geometry">
            <mxPoint x="40" y="70" as="sourcePoint" />
            <mxPoint x="200" y="70" as="targetPoint" />
          </mxGeometry>
        </mxCell>
        <mxCell id="MqQqpcN7Zi8VqkHb9JML-94" value="" style="endArrow=none;html=1;rounded=0;entryX=0.405;entryY=1;entryDx=0;entryDy=0;entryPerimeter=0;" parent="1" source="MqQqpcN7Zi8VqkHb9JML-56" target="MqQqpcN7Zi8VqkHb9JML-57" edge="1">
          <mxGeometry relative="1" as="geometry">
            <mxPoint x="140" y="350" as="sourcePoint" />
            <mxPoint x="300" y="350" as="targetPoint" />
          </mxGeometry>
        </mxCell>
        <mxCell id="MqQqpcN7Zi8VqkHb9JML-95" value="" style="endArrow=none;html=1;rounded=0;" parent="1" source="MqQqpcN7Zi8VqkHb9JML-56" target="MqQqpcN7Zi8VqkHb9JML-59" edge="1">
          <mxGeometry relative="1" as="geometry">
            <mxPoint x="140" y="350" as="sourcePoint" />
            <mxPoint x="300" y="350" as="targetPoint" />
          </mxGeometry>
        </mxCell>
        <mxCell id="MqQqpcN7Zi8VqkHb9JML-96" value="" style="endArrow=none;html=1;rounded=0;entryX=0.706;entryY=0.88;entryDx=0;entryDy=0;entryPerimeter=0;exitX=0;exitY=0.25;exitDx=0;exitDy=0;" parent="1" source="MqQqpcN7Zi8VqkHb9JML-68" target="MqQqpcN7Zi8VqkHb9JML-65" edge="1">
          <mxGeometry relative="1" as="geometry">
            <mxPoint x="140" y="350" as="sourcePoint" />
            <mxPoint x="300" y="350" as="targetPoint" />
          </mxGeometry>
        </mxCell>
        <mxCell id="MqQqpcN7Zi8VqkHb9JML-98" value="" style="endArrow=none;html=1;rounded=0;" parent="1" source="MqQqpcN7Zi8VqkHb9JML-68" target="MqQqpcN7Zi8VqkHb9JML-45" edge="1">
          <mxGeometry relative="1" as="geometry">
            <mxPoint x="140" y="350" as="sourcePoint" />
            <mxPoint x="300" y="350" as="targetPoint" />
          </mxGeometry>
        </mxCell>
        <mxCell id="MqQqpcN7Zi8VqkHb9JML-99" value="" style="endArrow=none;html=1;rounded=0;exitX=0.5;exitY=1;exitDx=0;exitDy=0;" parent="1" source="MqQqpcN7Zi8VqkHb9JML-13" target="MqQqpcN7Zi8VqkHb9JML-12" edge="1">
          <mxGeometry relative="1" as="geometry">
            <mxPoint x="140" y="350" as="sourcePoint" />
            <mxPoint x="300" y="350" as="targetPoint" />
          </mxGeometry>
        </mxCell>
        <mxCell id="MqQqpcN7Zi8VqkHb9JML-100" value="" style="endArrow=none;html=1;rounded=0;" parent="1" source="MqQqpcN7Zi8VqkHb9JML-12" target="MqQqpcN7Zi8VqkHb9JML-15" edge="1">
          <mxGeometry relative="1" as="geometry">
            <mxPoint x="140" y="350" as="sourcePoint" />
            <mxPoint x="300" y="350" as="targetPoint" />
          </mxGeometry>
        </mxCell>
        <mxCell id="MqQqpcN7Zi8VqkHb9JML-101" value="" style="endArrow=none;html=1;rounded=0;exitX=0.41;exitY=0.913;exitDx=0;exitDy=0;exitPerimeter=0;" parent="1" source="MqQqpcN7Zi8VqkHb9JML-12" target="MqQqpcN7Zi8VqkHb9JML-16" edge="1">
          <mxGeometry relative="1" as="geometry">
            <mxPoint x="140" y="350" as="sourcePoint" />
            <mxPoint x="300" y="350" as="targetPoint" />
          </mxGeometry>
        </mxCell>
        <mxCell id="MqQqpcN7Zi8VqkHb9JML-102" value="" style="endArrow=none;html=1;rounded=0;entryX=0.5;entryY=0;entryDx=0;entryDy=0;exitX=0.675;exitY=1.013;exitDx=0;exitDy=0;exitPerimeter=0;" parent="1" source="MqQqpcN7Zi8VqkHb9JML-12" target="MqQqpcN7Zi8VqkHb9JML-14" edge="1">
          <mxGeometry relative="1" as="geometry">
            <mxPoint x="140" y="350" as="sourcePoint" />
            <mxPoint x="300" y="350" as="targetPoint" />
          </mxGeometry>
        </mxCell>
        <mxCell id="MqQqpcN7Zi8VqkHb9JML-103" value="" style="endArrow=none;html=1;rounded=0;entryX=0;entryY=1;entryDx=0;entryDy=0;" parent="1" source="MqQqpcN7Zi8VqkHb9JML-20" target="MqQqpcN7Zi8VqkHb9JML-21" edge="1">
          <mxGeometry relative="1" as="geometry">
            <mxPoint x="270" y="350" as="sourcePoint" />
            <mxPoint x="430" y="350" as="targetPoint" />
          </mxGeometry>
        </mxCell>
        <mxCell id="MqQqpcN7Zi8VqkHb9JML-104" value="" style="endArrow=none;html=1;rounded=0;entryX=0;entryY=0.5;entryDx=0;entryDy=0;" parent="1" source="MqQqpcN7Zi8VqkHb9JML-20" target="MqQqpcN7Zi8VqkHb9JML-22" edge="1">
          <mxGeometry relative="1" as="geometry">
            <mxPoint x="270" y="350" as="sourcePoint" />
            <mxPoint x="430" y="350" as="targetPoint" />
          </mxGeometry>
        </mxCell>
        <mxCell id="MqQqpcN7Zi8VqkHb9JML-105" value="" style="endArrow=none;html=1;rounded=0;" parent="1" source="MqQqpcN7Zi8VqkHb9JML-20" target="MqQqpcN7Zi8VqkHb9JML-50" edge="1">
          <mxGeometry relative="1" as="geometry">
            <mxPoint x="270" y="350" as="sourcePoint" />
            <mxPoint x="430" y="350" as="targetPoint" />
          </mxGeometry>
        </mxCell>
        <mxCell id="MqQqpcN7Zi8VqkHb9JML-106" value="" style="endArrow=none;html=1;rounded=0;" parent="1" source="MqQqpcN7Zi8VqkHb9JML-1" target="MqQqpcN7Zi8VqkHb9JML-3" edge="1">
          <mxGeometry relative="1" as="geometry">
            <mxPoint x="260" y="110" as="sourcePoint" />
            <mxPoint x="420" y="110" as="targetPoint" />
          </mxGeometry>
        </mxCell>
        <mxCell id="MqQqpcN7Zi8VqkHb9JML-107" value="" style="endArrow=none;html=1;rounded=0;" parent="1" source="MqQqpcN7Zi8VqkHb9JML-44" target="MqQqpcN7Zi8VqkHb9JML-1" edge="1">
          <mxGeometry relative="1" as="geometry">
            <mxPoint x="260" y="110" as="sourcePoint" />
            <mxPoint x="420" y="110" as="targetPoint" />
          </mxGeometry>
        </mxCell>
        <mxCell id="MqQqpcN7Zi8VqkHb9JML-108" value="" style="endArrow=none;html=1;rounded=0;" parent="1" source="MqQqpcN7Zi8VqkHb9JML-1" target="MqQqpcN7Zi8VqkHb9JML-7" edge="1">
          <mxGeometry relative="1" as="geometry">
            <mxPoint x="260" y="110" as="sourcePoint" />
            <mxPoint x="420" y="110" as="targetPoint" />
          </mxGeometry>
        </mxCell>
        <mxCell id="MqQqpcN7Zi8VqkHb9JML-109" value="" style="endArrow=none;html=1;rounded=0;entryX=0.5;entryY=1;entryDx=0;entryDy=0;exitX=0.5;exitY=0;exitDx=0;exitDy=0;" parent="1" source="MqQqpcN7Zi8VqkHb9JML-52" target="MqQqpcN7Zi8VqkHb9JML-53" edge="1">
          <mxGeometry relative="1" as="geometry">
            <mxPoint x="260" y="110" as="sourcePoint" />
            <mxPoint x="420" y="110" as="targetPoint" />
          </mxGeometry>
        </mxCell>
        <mxCell id="MqQqpcN7Zi8VqkHb9JML-110" value="" style="endArrow=none;html=1;rounded=0;entryX=0.5;entryY=1;entryDx=0;entryDy=0;exitX=0.75;exitY=0;exitDx=0;exitDy=0;" parent="1" source="MqQqpcN7Zi8VqkHb9JML-52" target="MqQqpcN7Zi8VqkHb9JML-55" edge="1">
          <mxGeometry relative="1" as="geometry">
            <mxPoint x="260" y="110" as="sourcePoint" />
            <mxPoint x="420" y="110" as="targetPoint" />
          </mxGeometry>
        </mxCell>
        <mxCell id="MqQqpcN7Zi8VqkHb9JML-111" value="" style="endArrow=none;html=1;rounded=0;entryX=0.58;entryY=0.9;entryDx=0;entryDy=0;entryPerimeter=0;" parent="1" source="MqQqpcN7Zi8VqkHb9JML-54" target="MqQqpcN7Zi8VqkHb9JML-52" edge="1">
          <mxGeometry relative="1" as="geometry">
            <mxPoint x="260" y="110" as="sourcePoint" />
            <mxPoint x="420" y="110" as="targetPoint" />
          </mxGeometry>
        </mxCell>
        <mxCell id="MqQqpcN7Zi8VqkHb9JML-112" value="" style="endArrow=none;html=1;rounded=0;exitX=0.5;exitY=0;exitDx=0;exitDy=0;" parent="1" source="MqQqpcN7Zi8VqkHb9JML-2" target="MqQqpcN7Zi8VqkHb9JML-9" edge="1">
          <mxGeometry relative="1" as="geometry">
            <mxPoint x="260" y="110" as="sourcePoint" />
            <mxPoint x="420" y="110" as="targetPoint" />
          </mxGeometry>
        </mxCell>
        <mxCell id="MqQqpcN7Zi8VqkHb9JML-113" value="" style="endArrow=none;html=1;rounded=0;entryX=0;entryY=0;entryDx=0;entryDy=0;" parent="1" source="MqQqpcN7Zi8VqkHb9JML-2" target="MqQqpcN7Zi8VqkHb9JML-11" edge="1">
          <mxGeometry relative="1" as="geometry">
            <mxPoint x="260" y="110" as="sourcePoint" />
            <mxPoint x="420" y="110" as="targetPoint" />
          </mxGeometry>
        </mxCell>
        <mxCell id="MqQqpcN7Zi8VqkHb9JML-114" value="" style="endArrow=none;html=1;rounded=0;entryX=0;entryY=1;entryDx=0;entryDy=0;exitX=0.75;exitY=0;exitDx=0;exitDy=0;" parent="1" source="MqQqpcN7Zi8VqkHb9JML-2" target="MqQqpcN7Zi8VqkHb9JML-8" edge="1">
          <mxGeometry relative="1" as="geometry">
            <mxPoint x="260" y="110" as="sourcePoint" />
            <mxPoint x="420" y="110" as="targetPoint" />
          </mxGeometry>
        </mxCell>
        <mxCell id="MqQqpcN7Zi8VqkHb9JML-115" value="" style="endArrow=none;html=1;rounded=0;entryX=0;entryY=1;entryDx=0;entryDy=0;" parent="1" source="MqQqpcN7Zi8VqkHb9JML-2" target="MqQqpcN7Zi8VqkHb9JML-10" edge="1">
          <mxGeometry relative="1" as="geometry">
            <mxPoint x="260" y="110" as="sourcePoint" />
            <mxPoint x="420" y="110" as="targetPoint" />
          </mxGeometry>
        </mxCell>
        <mxCell id="MqQqpcN7Zi8VqkHb9JML-116" value="" style="endArrow=none;html=1;rounded=0;entryX=0.63;entryY=-0.062;entryDx=0;entryDy=0;entryPerimeter=0;exitX=1;exitY=1;exitDx=0;exitDy=0;" parent="1" source="MqQqpcN7Zi8VqkHb9JML-118" target="MqQqpcN7Zi8VqkHb9JML-2" edge="1">
          <mxGeometry relative="1" as="geometry">
            <mxPoint x="580" y="20" as="sourcePoint" />
            <mxPoint x="430" y="150" as="targetPoint" />
          </mxGeometry>
        </mxCell>
        <mxCell id="MqQqpcN7Zi8VqkHb9JML-117" value="1" style="resizable=0;html=1;whiteSpace=wrap;align=right;verticalAlign=bottom;" parent="MqQqpcN7Zi8VqkHb9JML-116" connectable="0" vertex="1">
          <mxGeometry x="1" relative="1" as="geometry" />
        </mxCell>
        <mxCell id="MqQqpcN7Zi8VqkHb9JML-118" value="Compra" style="shape=rhombus;perimeter=rhombusPerimeter;whiteSpace=wrap;html=1;align=center;" parent="1" vertex="1">
          <mxGeometry x="560" y="5" width="100" height="40" as="geometry" />
        </mxCell>
        <mxCell id="MqQqpcN7Zi8VqkHb9JML-119" value="" style="endArrow=none;html=1;rounded=0;entryX=0.25;entryY=1;entryDx=0;entryDy=0;" parent="1" source="MqQqpcN7Zi8VqkHb9JML-118" target="MqQqpcN7Zi8VqkHb9JML-52" edge="1">
          <mxGeometry relative="1" as="geometry">
            <mxPoint x="270" y="150" as="sourcePoint" />
            <mxPoint x="430" y="150" as="targetPoint" />
          </mxGeometry>
        </mxCell>
        <mxCell id="MqQqpcN7Zi8VqkHb9JML-120" value="N" style="resizable=0;html=1;whiteSpace=wrap;align=right;verticalAlign=bottom;" parent="MqQqpcN7Zi8VqkHb9JML-119" connectable="0" vertex="1">
          <mxGeometry x="1" relative="1" as="geometry" />
        </mxCell>
        <mxCell id="MqQqpcN7Zi8VqkHb9JML-121" value="" style="endArrow=none;html=1;rounded=0;entryX=0.75;entryY=0;entryDx=0;entryDy=0;exitX=0.5;exitY=1;exitDx=0;exitDy=0;" parent="1" source="MqQqpcN7Zi8VqkHb9JML-123" target="MqQqpcN7Zi8VqkHb9JML-1" edge="1">
          <mxGeometry relative="1" as="geometry">
            <mxPoint x="400" y="60" as="sourcePoint" />
            <mxPoint x="430" y="150" as="targetPoint" />
          </mxGeometry>
        </mxCell>
        <mxCell id="MqQqpcN7Zi8VqkHb9JML-122" value="1" style="resizable=0;html=1;whiteSpace=wrap;align=right;verticalAlign=bottom;" parent="MqQqpcN7Zi8VqkHb9JML-121" connectable="0" vertex="1">
          <mxGeometry x="1" relative="1" as="geometry" />
        </mxCell>
        <mxCell id="MqQqpcN7Zi8VqkHb9JML-123" value="Pertenece" style="shape=rhombus;perimeter=rhombusPerimeter;whiteSpace=wrap;html=1;align=center;" parent="1" vertex="1">
          <mxGeometry x="370" y="20" width="100" height="30" as="geometry" />
        </mxCell>
        <mxCell id="MqQqpcN7Zi8VqkHb9JML-124" value="" style="endArrow=none;html=1;rounded=0;entryX=0;entryY=0.75;entryDx=0;entryDy=0;" parent="1" source="MqQqpcN7Zi8VqkHb9JML-123" target="MqQqpcN7Zi8VqkHb9JML-52" edge="1">
          <mxGeometry relative="1" as="geometry">
            <mxPoint x="270" y="150" as="sourcePoint" />
            <mxPoint x="430" y="150" as="targetPoint" />
          </mxGeometry>
        </mxCell>
        <mxCell id="MqQqpcN7Zi8VqkHb9JML-125" value="N" style="resizable=0;html=1;whiteSpace=wrap;align=right;verticalAlign=bottom;" parent="MqQqpcN7Zi8VqkHb9JML-124" connectable="0" vertex="1">
          <mxGeometry x="1" relative="1" as="geometry" />
        </mxCell>
        <mxCell id="MqQqpcN7Zi8VqkHb9JML-128" value="Despega" style="shape=rhombus;perimeter=rhombusPerimeter;whiteSpace=wrap;html=1;align=center;" parent="1" vertex="1">
          <mxGeometry x="-185" y="-25" width="105" height="35" as="geometry" />
        </mxCell>
        <mxCell id="MqQqpcN7Zi8VqkHb9JML-129" value="" style="endArrow=none;html=1;rounded=0;entryX=0.5;entryY=0;entryDx=0;entryDy=0;exitX=0.5;exitY=1;exitDx=0;exitDy=0;" parent="1" source="MqQqpcN7Zi8VqkHb9JML-128" target="MqQqpcN7Zi8VqkHb9JML-46" edge="1">
          <mxGeometry relative="1" as="geometry">
            <mxPoint x="-150" y="130" as="sourcePoint" />
            <mxPoint x="10" y="130" as="targetPoint" />
          </mxGeometry>
        </mxCell>
        <mxCell id="MqQqpcN7Zi8VqkHb9JML-130" value="1" style="resizable=0;html=1;whiteSpace=wrap;align=right;verticalAlign=bottom;" parent="MqQqpcN7Zi8VqkHb9JML-129" connectable="0" vertex="1">
          <mxGeometry x="1" relative="1" as="geometry" />
        </mxCell>
        <mxCell id="MqQqpcN7Zi8VqkHb9JML-131" value="" style="endArrow=none;html=1;rounded=0;entryX=0.25;entryY=1;entryDx=0;entryDy=0;exitX=0.5;exitY=0;exitDx=0;exitDy=0;" parent="1" source="MqQqpcN7Zi8VqkHb9JML-128" target="MqQqpcN7Zi8VqkHb9JML-67" edge="1">
          <mxGeometry relative="1" as="geometry">
            <mxPoint x="-150" y="130" as="sourcePoint" />
            <mxPoint x="10" y="130" as="targetPoint" />
          </mxGeometry>
        </mxCell>
        <mxCell id="MqQqpcN7Zi8VqkHb9JML-132" value="N" style="resizable=0;html=1;whiteSpace=wrap;align=right;verticalAlign=bottom;" parent="MqQqpcN7Zi8VqkHb9JML-131" connectable="0" vertex="1">
          <mxGeometry x="1" relative="1" as="geometry" />
        </mxCell>
        <mxCell id="MqQqpcN7Zi8VqkHb9JML-133" value="Aterriza" style="shape=rhombus;perimeter=rhombusPerimeter;whiteSpace=wrap;html=1;align=center;" parent="1" vertex="1">
          <mxGeometry x="-220" y="120" width="80" height="40" as="geometry" />
        </mxCell>
        <mxCell id="MqQqpcN7Zi8VqkHb9JML-134" value="" style="endArrow=none;html=1;rounded=0;entryX=0.25;entryY=0;entryDx=0;entryDy=0;exitX=0.5;exitY=1;exitDx=0;exitDy=0;" parent="1" source="MqQqpcN7Zi8VqkHb9JML-133" target="MqQqpcN7Zi8VqkHb9JML-68" edge="1">
          <mxGeometry relative="1" as="geometry">
            <mxPoint x="-150" y="130" as="sourcePoint" />
            <mxPoint x="10" y="130" as="targetPoint" />
          </mxGeometry>
        </mxCell>
        <mxCell id="MqQqpcN7Zi8VqkHb9JML-135" value="N" style="resizable=0;html=1;whiteSpace=wrap;align=right;verticalAlign=bottom;" parent="MqQqpcN7Zi8VqkHb9JML-134" connectable="0" vertex="1">
          <mxGeometry x="1" relative="1" as="geometry" />
        </mxCell>
        <mxCell id="MqQqpcN7Zi8VqkHb9JML-136" value="" style="endArrow=none;html=1;rounded=0;entryX=0.58;entryY=0.963;entryDx=0;entryDy=0;entryPerimeter=0;exitX=0.5;exitY=0;exitDx=0;exitDy=0;" parent="1" source="MqQqpcN7Zi8VqkHb9JML-133" target="MqQqpcN7Zi8VqkHb9JML-46" edge="1">
          <mxGeometry relative="1" as="geometry">
            <mxPoint x="-150" y="130" as="sourcePoint" />
            <mxPoint x="10" y="130" as="targetPoint" />
          </mxGeometry>
        </mxCell>
        <mxCell id="MqQqpcN7Zi8VqkHb9JML-137" value="1" style="resizable=0;html=1;whiteSpace=wrap;align=right;verticalAlign=bottom;" parent="MqQqpcN7Zi8VqkHb9JML-136" connectable="0" vertex="1">
          <mxGeometry x="1" relative="1" as="geometry" />
        </mxCell>
        <mxCell id="C1ZlqqEbSVXtY4wqUnDA-2" value="&lt;span style=&quot;border-bottom: 1px dotted;&quot;&gt;Aeropuerto&lt;/span&gt;" style="ellipse;whiteSpace=wrap;html=1;align=center;" vertex="1" parent="1">
          <mxGeometry x="20" y="250" width="100" height="40" as="geometry" />
        </mxCell>
        <mxCell id="C1ZlqqEbSVXtY4wqUnDA-3" value="&lt;span style=&quot;border-bottom: 1px dotted;&quot;&gt;Aerolinea&lt;/span&gt;" style="ellipse;whiteSpace=wrap;html=1;align=center;" vertex="1" parent="1">
          <mxGeometry x="270" y="330" width="100" height="40" as="geometry" />
        </mxCell>
        <mxCell id="C1ZlqqEbSVXtY4wqUnDA-4" value="" style="endArrow=none;html=1;rounded=0;" edge="1" parent="1" source="MqQqpcN7Zi8VqkHb9JML-12" target="C1ZlqqEbSVXtY4wqUnDA-3">
          <mxGeometry relative="1" as="geometry">
            <mxPoint x="-30" y="390" as="sourcePoint" />
            <mxPoint x="130" y="390" as="targetPoint" />
          </mxGeometry>
        </mxCell>
        <mxCell id="C1ZlqqEbSVXtY4wqUnDA-5" value="" style="endArrow=none;html=1;rounded=0;" edge="1" parent="1" source="MqQqpcN7Zi8VqkHb9JML-68" target="C1ZlqqEbSVXtY4wqUnDA-2">
          <mxGeometry relative="1" as="geometry">
            <mxPoint x="-30" y="60" as="sourcePoint" />
            <mxPoint x="130" y="60" as="targetPoint" />
          </mxGeometry>
        </mxCell>
        <mxCell id="C1ZlqqEbSVXtY4wqUnDA-6" value="&lt;span style=&quot;border-bottom: 1px dotted;&quot;&gt;Aeropuerto&lt;/span&gt;" style="ellipse;whiteSpace=wrap;html=1;align=center;" vertex="1" parent="1">
          <mxGeometry x="-140" y="-210" width="100" height="40" as="geometry" />
        </mxCell>
        <mxCell id="C1ZlqqEbSVXtY4wqUnDA-7" value="" style="endArrow=none;html=1;rounded=0;exitX=0.25;exitY=0;exitDx=0;exitDy=0;" edge="1" parent="1" source="MqQqpcN7Zi8VqkHb9JML-67" target="C1ZlqqEbSVXtY4wqUnDA-6">
          <mxGeometry relative="1" as="geometry">
            <mxPoint x="-30" y="60" as="sourcePoint" />
            <mxPoint x="130" y="60" as="targetPoint" />
          </mxGeometry>
        </mxCell>
        <mxCell id="C1ZlqqEbSVXtY4wqUnDA-8" value="&lt;span style=&quot;border-bottom: 1px dotted;&quot;&gt;Vuelo&lt;/span&gt;" style="ellipse;whiteSpace=wrap;html=1;align=center;" vertex="1" parent="1">
          <mxGeometry x="170" y="-145" width="100" height="40" as="geometry" />
        </mxCell>
        <mxCell id="C1ZlqqEbSVXtY4wqUnDA-9" value="" style="endArrow=none;html=1;rounded=0;exitX=0.25;exitY=0;exitDx=0;exitDy=0;" edge="1" parent="1" source="MqQqpcN7Zi8VqkHb9JML-28" target="C1ZlqqEbSVXtY4wqUnDA-8">
          <mxGeometry relative="1" as="geometry">
            <mxPoint x="210" y="60" as="sourcePoint" />
            <mxPoint x="370" y="60" as="targetPoint" />
          </mxGeometry>
        </mxCell>
        <mxCell id="C1ZlqqEbSVXtY4wqUnDA-10" value="&lt;span style=&quot;border-bottom: 1px dotted;&quot;&gt;Vuelo&lt;/span&gt;" style="ellipse;whiteSpace=wrap;html=1;align=center;" vertex="1" parent="1">
          <mxGeometry x="727" y="-80" width="63" height="40" as="geometry" />
        </mxCell>
        <mxCell id="C1ZlqqEbSVXtY4wqUnDA-11" value="&lt;span style=&quot;border-bottom: 1px dotted;&quot;&gt;Pasajero&lt;/span&gt;" style="ellipse;whiteSpace=wrap;html=1;align=center;" vertex="1" parent="1">
          <mxGeometry x="470" y="-100" width="100" height="40" as="geometry" />
        </mxCell>
        <mxCell id="C1ZlqqEbSVXtY4wqUnDA-12" value="" style="endArrow=none;html=1;rounded=0;" edge="1" parent="1" source="MqQqpcN7Zi8VqkHb9JML-52" target="C1ZlqqEbSVXtY4wqUnDA-11">
          <mxGeometry relative="1" as="geometry">
            <mxPoint x="450" y="60" as="sourcePoint" />
            <mxPoint x="610" y="60" as="targetPoint" />
          </mxGeometry>
        </mxCell>
        <mxCell id="C1ZlqqEbSVXtY4wqUnDA-13" value="" style="endArrow=none;html=1;rounded=0;" edge="1" parent="1" source="MqQqpcN7Zi8VqkHb9JML-52" target="C1ZlqqEbSVXtY4wqUnDA-10">
          <mxGeometry relative="1" as="geometry">
            <mxPoint x="450" y="60" as="sourcePoint" />
            <mxPoint x="610" y="60" as="targetPoint" />
          </mxGeometry>
        </mxCell>
        <mxCell id="C1ZlqqEbSVXtY4wqUnDA-14" value="&lt;span style=&quot;border-bottom: 1px dotted;&quot;&gt;Avion&lt;/span&gt;" style="ellipse;whiteSpace=wrap;html=1;align=center;" vertex="1" parent="1">
          <mxGeometry x="80" y="180" width="70" height="40" as="geometry" />
        </mxCell>
        <mxCell id="C1ZlqqEbSVXtY4wqUnDA-15" value="&lt;span style=&quot;border-bottom: 1px dotted;&quot;&gt;Llegada&lt;/span&gt;" style="ellipse;whiteSpace=wrap;html=1;align=center;" vertex="1" parent="1">
          <mxGeometry x="120" y="230" width="70" height="40" as="geometry" />
        </mxCell>
        <mxCell id="C1ZlqqEbSVXtY4wqUnDA-17" value="&lt;span style=&quot;border-bottom: 1px dotted;&quot;&gt;Salida&lt;/span&gt;" style="ellipse;whiteSpace=wrap;html=1;align=center;" vertex="1" parent="1">
          <mxGeometry x="240" y="80" width="70" height="40" as="geometry" />
        </mxCell>
        <mxCell id="C1ZlqqEbSVXtY4wqUnDA-18" value="" style="endArrow=none;html=1;rounded=0;entryX=0.5;entryY=1;entryDx=0;entryDy=0;" edge="1" parent="1" source="MqQqpcN7Zi8VqkHb9JML-1" target="C1ZlqqEbSVXtY4wqUnDA-17">
          <mxGeometry relative="1" as="geometry">
            <mxPoint x="190" y="210" as="sourcePoint" />
            <mxPoint x="350" y="210" as="targetPoint" />
          </mxGeometry>
        </mxCell>
        <mxCell id="C1ZlqqEbSVXtY4wqUnDA-19" value="" style="endArrow=none;html=1;rounded=0;entryX=1;entryY=0;entryDx=0;entryDy=0;exitX=0.16;exitY=0.988;exitDx=0;exitDy=0;exitPerimeter=0;" edge="1" parent="1" source="MqQqpcN7Zi8VqkHb9JML-1" target="C1ZlqqEbSVXtY4wqUnDA-15">
          <mxGeometry relative="1" as="geometry">
            <mxPoint x="190" y="210" as="sourcePoint" />
            <mxPoint x="350" y="210" as="targetPoint" />
          </mxGeometry>
        </mxCell>
        <mxCell id="C1ZlqqEbSVXtY4wqUnDA-20" value="" style="endArrow=none;html=1;rounded=0;entryX=1;entryY=0.5;entryDx=0;entryDy=0;exitX=0;exitY=0.5;exitDx=0;exitDy=0;" edge="1" parent="1" source="MqQqpcN7Zi8VqkHb9JML-1" target="C1ZlqqEbSVXtY4wqUnDA-14">
          <mxGeometry relative="1" as="geometry">
            <mxPoint x="190" y="210" as="sourcePoint" />
            <mxPoint x="350" y="210" as="targetPoint" />
          </mxGeometry>
        </mxCell>
        <mxCell id="C1ZlqqEbSVXtY4wqUnDA-21" value="&lt;span style=&quot;border-bottom: 1px dotted;&quot;&gt;Puerta&lt;/span&gt;" style="ellipse;whiteSpace=wrap;html=1;align=center;" vertex="1" parent="1">
          <mxGeometry x="220" y="240" width="70" height="40" as="geometry" />
        </mxCell>
        <mxCell id="C1ZlqqEbSVXtY4wqUnDA-22" value="" style="endArrow=none;html=1;rounded=0;entryX=0.5;entryY=0;entryDx=0;entryDy=0;" edge="1" parent="1" source="MqQqpcN7Zi8VqkHb9JML-1" target="C1ZlqqEbSVXtY4wqUnDA-21">
          <mxGeometry relative="1" as="geometry">
            <mxPoint x="230" y="210" as="sourcePoint" />
            <mxPoint x="390" y="210" as="targetPoint" />
          </mxGeometry>
        </mxCell>
      </root>
    </mxGraphModel>
  </diagram>
</mxfile>
